<svg width="133" height="20" viewBox="0 0 133 20" fill="none" xmlns="http://www.w3.org/2000/svg">
<g clip-path="url(#clip0)">
<path d="M14.2841 2.44064C13.841 2.92679 13.322 3.50408 12.7334 4.1786C12.1447 4.85313 11.5244 5.60665 10.8345 6.43309C10.1446 7.25955 9.49903 8.12853 8.80913 9.05221C8.11922 9.97589 7.42932 10.8753 6.76473 11.8293C6.10014 12.7834 5.49885 13.701 4.8659 14.6307C4.23296 15.5605 3.72661 16.4538 3.24558 17.2681H14.5753V19.5773H0.0175781V17.7542C0.42266 17.0129 0.903694 16.1925 1.45435 15.3235C2.00501 14.4545 2.59364 13.5005 3.22026 12.595C3.84687 11.6895 4.48614 10.7294 5.17605 9.78751C5.86594 8.8456 6.5242 7.93407 7.18879 7.05901C7.85338 6.18395 8.50532 5.37573 9.13192 4.62828C9.75854 3.88084 10.3345 3.20024 10.8535 2.62901H0.555577V0.319824H14.2841V2.44064Z" fill="#F92727"/>
<path d="M18.1387 19.5774V0.301758H30.3988V2.61095H20.9488V8.34138H29.3543V10.5959H20.9488V17.2803H31.1203V19.5895L18.1387 19.5774Z" fill="#F92727"/>
<path d="M40.1025 19.7476C39.6975 19.7476 39.2608 19.7476 38.7861 19.7476C38.3114 19.7476 37.8366 19.705 37.3683 19.6686C36.8999 19.6321 36.4252 19.5834 35.9632 19.5288C35.5369 19.4782 35.1142 19.4032 34.6973 19.304V0.581325C35.1136 0.479362 35.5364 0.404241 35.9632 0.356477C36.4252 0.301785 36.8935 0.253174 37.3683 0.216713C37.843 0.180251 38.305 0.149867 38.7734 0.131638C39.2417 0.113407 39.6721 0.131638 40.0772 0.131638C41.1692 0.124542 42.2598 0.207903 43.3369 0.380789C44.2592 0.515987 45.1501 0.803839 45.9699 1.23154C46.6859 1.5996 47.29 2.13983 47.7232 2.79936C48.1667 3.52356 48.3862 4.35403 48.3561 5.19363C48.3965 6.11952 48.121 7.03276 47.5713 7.79449C47.0402 8.47928 46.3183 9.00595 45.4889 9.31371C46.5591 9.58215 47.5316 10.1289 48.2992 10.8937C49.0372 11.7421 49.4107 12.8286 49.3435 13.9321C49.395 14.7796 49.2174 15.6256 48.8281 16.3878C48.439 17.1501 47.8512 17.8029 47.1219 18.2831C45.6534 19.2634 43.3137 19.7516 40.1025 19.7476ZM37.4695 8.42648H40.4317C41.0906 8.42779 41.7487 8.38107 42.4001 8.28672C42.9624 8.20923 43.5064 8.03857 44.0078 7.78235C44.4428 7.56188 44.8113 7.23747 45.0775 6.84044C45.3568 6.39601 45.4933 5.88235 45.4699 5.36377C45.4876 4.86711 45.3462 4.37719 45.0649 3.96003C44.7819 3.56729 44.3982 3.25125 43.9509 3.04243C43.425 2.79375 42.8643 2.61975 42.2862 2.52591C41.6153 2.41395 40.9354 2.35904 40.2545 2.36183C39.5393 2.36183 38.9886 2.36183 38.5771 2.36183C38.1658 2.36183 37.7987 2.41044 37.4759 2.44691L37.4695 8.42648ZM37.4695 10.5959V17.3837L38.2227 17.4384C38.4695 17.4384 38.7671 17.4384 39.1025 17.4809H40.2798C41.0696 17.4845 41.8585 17.4337 42.6407 17.3291C43.3169 17.2428 43.976 17.0605 44.5965 16.7881C45.1346 16.5412 45.5985 16.1668 45.9445 15.7004C46.2983 15.1816 46.4753 14.57 46.451 13.9503C46.4692 13.3932 46.3384 12.8409 46.0712 12.346C45.8189 11.9092 45.4438 11.5492 44.9888 11.3069C44.4619 11.0268 43.8877 10.8375 43.2925 10.7478C42.5646 10.6331 41.8277 10.5782 41.0899 10.5838L37.4695 10.5959Z" fill="#171717"/>
<path d="M63.1416 11.5136C63.4454 11.8843 63.8377 12.3704 64.3125 12.972C64.7872 13.5737 65.2745 14.2421 65.7746 14.9774C66.2746 15.7127 66.7746 16.4723 67.2683 17.2683C67.7341 18.0151 68.1568 18.7861 68.5342 19.5775H65.4644C65.0784 18.8726 64.6543 18.1617 64.1986 17.4385C63.7429 16.7154 63.2871 16.0226 62.8188 15.3663C62.3504 14.7101 61.901 14.0902 61.4453 13.5129C60.9895 12.9356 60.5782 12.4373 60.2111 12.0119C59.9642 12.0119 59.7046 12.0423 59.4451 12.0423H56.1285V19.5775H53.3184V0.581413C54.1895 0.38324 55.0768 0.257183 55.9704 0.204643C56.945 0.137799 57.8692 0.107422 58.6477 0.107422C61.4706 0.107422 63.6205 0.617868 65.0974 1.63878C66.5721 2.6536 67.3126 4.17888 67.3126 6.19639C67.3452 7.37386 66.9739 8.52899 66.2557 9.48395C65.4559 10.448 64.37 11.1559 63.1416 11.5136ZM58.8819 2.47738C57.6793 2.47738 56.7678 2.47738 56.1285 2.56246V9.81818H58.154C59.0253 9.8241 59.896 9.77946 60.7617 9.68448C61.4396 9.61332 62.1005 9.43467 62.7175 9.1558C63.2306 8.91322 63.6578 8.53059 63.9453 8.0559C64.2635 7.4788 64.4143 6.83032 64.3821 6.17816C64.4075 5.54406 64.2567 4.91488 63.9453 4.35511C63.6671 3.8816 63.263 3.4874 62.7744 3.21267C62.2352 2.91503 61.6463 2.70943 61.0338 2.60499C60.3216 2.50346 59.6017 2.46075 58.8819 2.47738Z" fill="#171717"/>
<path d="M85.7692 19.5773C85.4402 18.7448 85.1363 17.9244 84.8451 17.1466C84.554 16.3688 84.2565 15.518 83.9464 14.6854H74.8447L73.0218 19.6077H70.0977C70.8699 17.5821 71.5935 15.6962 72.2686 13.9502C72.9437 12.2041 73.6041 10.5573 74.2497 9.00972C74.8826 7.45405 75.5156 5.97131 76.1485 4.54327C76.7815 3.11521 77.4524 1.72363 78.1487 0.332031H80.7248C81.4209 1.72565 82.0876 3.12939 82.7248 4.54327C83.3578 5.96524 83.9907 7.45405 84.6237 9.00972C85.2566 10.5654 85.9275 12.2122 86.6047 13.9502C87.282 15.6881 88.0035 17.5962 88.7821 19.6077L85.7692 19.5773ZM83.1362 12.431C82.5159 10.8105 81.902 9.24672 81.2944 7.73967C80.6867 6.23263 80.0538 4.78228 79.3956 3.38867C78.7205 4.78228 78.0875 6.23263 77.4967 7.73967C76.9059 9.24672 76.3025 10.8105 75.6865 12.431H83.1362Z" fill="#171717"/>
<path d="M91.5664 0.301758H94.3766V19.5774H91.5664V0.301758Z" fill="#171717"/>
<path d="M113.124 19.5774C112.7 18.8907 112.212 18.125 111.662 17.2682C111.111 16.4114 110.516 15.5302 109.877 14.6126C109.238 13.695 108.579 12.7896 107.889 11.8173C107.199 10.845 106.522 9.95783 105.851 9.07668C105.18 8.19555 104.516 7.36909 103.877 6.58519C103.237 5.80128 102.655 5.12068 102.111 4.53123V19.5774H99.3574V0.301758H101.592C102.499 1.22544 103.469 2.30508 104.503 3.54071C105.537 4.77632 106.56 6.04638 107.573 7.35087C108.586 8.65739 109.541 9.94567 110.44 11.2036C111.339 12.4615 112.098 13.5918 112.719 14.5701V0.301758H115.472V19.5774H113.124Z" fill="#171717"/>
<path d="M125.118 17.6693C128.055 17.6693 129.548 16.7091 129.548 14.7767C129.563 14.2474 129.428 13.7243 129.156 13.2636C128.885 12.8351 128.526 12.4648 128.099 12.1758C127.628 11.8551 127.117 11.5898 126.58 11.3859C126.01 11.161 125.403 10.9422 124.77 10.7174C124.058 10.483 123.36 10.2091 122.681 9.89703C122.06 9.61572 121.484 9.24932 120.972 8.80928C120.481 8.40139 120.082 7.90081 119.801 7.33869C119.505 6.68152 119.363 5.97008 119.384 5.25435C119.343 4.50717 119.485 3.76125 119.797 3.07565C120.109 2.39007 120.583 1.78364 121.181 1.30442C122.377 0.356437 124.029 -0.111479 126.131 -0.111479C127.25 -0.12375 128.367 0.000812247 129.453 0.259207C130.22 0.426225 130.956 0.702757 131.637 1.07957L130.738 3.27939C130.168 2.9722 129.56 2.73341 128.928 2.56839C128.018 2.32373 127.076 2.20705 126.131 2.22201C125.623 2.21725 125.117 2.27443 124.624 2.39216C124.192 2.4888 123.781 2.65745 123.409 2.89045C123.068 3.10853 122.784 3.39979 122.58 3.74121C122.368 4.11336 122.263 4.53277 122.276 4.95657C122.26 5.41195 122.372 5.86305 122.599 6.26309C122.825 6.63151 123.132 6.94864 123.498 7.19284C123.919 7.48388 124.371 7.73233 124.846 7.93421C125.352 8.15297 125.922 8.37783 126.536 8.5966C127.409 8.93284 128.207 9.26707 128.928 9.59927C129.62 9.91295 130.259 10.3224 130.827 10.8146C131.356 11.276 131.775 11.842 132.055 12.4736C132.366 13.2102 132.514 14.0005 132.492 14.7949C132.53 15.5469 132.374 16.2962 132.038 16.9761C131.701 17.6558 131.193 18.2449 130.561 18.6902C129.295 19.5977 127.485 20.0514 125.131 20.0514C124.397 20.0565 123.665 20.0057 122.941 19.8994C122.341 19.8098 121.747 19.6881 121.162 19.5349C120.703 19.4159 120.253 19.2677 119.814 19.0913C119.434 18.9333 119.143 18.7995 118.928 18.6902L119.77 16.4599C120.421 16.7863 121.101 17.0569 121.801 17.2682C122.877 17.5734 123.997 17.7089 125.118 17.6693Z" fill="#171717"/>
</g>
<defs>
<clipPath id="clip0">
<rect width="133" height="20" fill="white"/>
</clipPath>
</defs>
</svg>